<?xml version="1.0" encoding="utf-8"?>
<svg width="518" height="541" viewBox="0 0 518 541" xmlns="http://www.w3.org/2000/svg">
<rect id="frame" x="0" y="0" width="518" height="541" fill="#f7f7f7" stroke="none" stroke-width="0"/>

<!-- Association DETENIR -->
<g>
	<line x1="441" y1="77" x2="299" y2="77" stroke="#8073ac" stroke-width="2"/>
	<text x="375" y="94" fill="#b35806" font-family="Verdana" font-size="12">0,N</text>
	<line x1="299" y1="195" x2="299" y2="77" stroke="#8073ac" stroke-width="2"/>
	<text x="304" y="136" fill="#b35806" font-family="Verdana" font-size="12">1,1</text>
	<g>
		<path d="M320 52 a14 14 90 0 1 14 14 V77 h-70 V66 a14 14 90 0 1 14 -14" fill="#b2abd2" stroke="#b2abd2" stroke-width="0"/>
		<path d="M334 77 v11 a14 14 90 0 1 -14 14 H278 a14 14 90 0 1 -14 -14 V77 H70" fill="#d8daeb" stroke="#d8daeb" stroke-width="0"/>
		<rect x="264" y="52" width="70" height="50" fill="none" rx="14" stroke="#8073ac" stroke-width="2"/>
		<line x1="264" y1="77" x2="334" y2="77" stroke="#8073ac" stroke-width="1"/>
		<text x="272" y="69.75" fill="#000" font-family="Verdana" font-size="12">DETENIR</text>
	</g>
</g>

<!-- Association RÉALISER -->
<g>
	<line x1="299" y1="195" x2="161" y2="195" stroke="#8073ac" stroke-width="2"/>
	<text x="223" y="212" fill="#b35806" font-family="Verdana" font-size="12">0,N</text>
	<line x1="161" y1="347" x2="161" y2="195" stroke="#8073ac" stroke-width="2"/>
	<text x="166" y="263" fill="#b35806" font-family="Verdana" font-size="12">1,1</text>
	<g>
		<path d="M185 170 a14 14 90 0 1 14 14 V195 h-76 V184 a14 14 90 0 1 14 -14" fill="#b2abd2" stroke="#b2abd2" stroke-width="0"/>
		<path d="M199 195 v11 a14 14 90 0 1 -14 14 H137 a14 14 90 0 1 -14 -14 V195 H76" fill="#d8daeb" stroke="#d8daeb" stroke-width="0"/>
		<rect x="123" y="170" width="76" height="50" fill="none" rx="14" stroke="#8073ac" stroke-width="2"/>
		<line x1="123" y1="195" x2="199" y2="195" stroke="#8073ac" stroke-width="1"/>
		<text x="131" y="187.75" fill="#000" font-family="Verdana" font-size="12">RÉALISER</text>
	</g>
</g>

<!-- Association EST COMPOSE -->
<g>
	<line x1="299" y1="195" x2="441" y2="195" stroke="#8073ac" stroke-width="2"/>
	<text x="353" y="212" fill="#b35806" font-family="Verdana" font-size="12">0,N</text>
	<line x1="441" y1="347" x2="441" y2="195" stroke="#8073ac" stroke-width="2"/>
	<text x="446" y="280" fill="#b35806" font-family="Verdana" font-size="12">1,1</text>
	<g>
		<path d="M479 170 a14 14 90 0 1 14 14 V195 h-104 V184 a14 14 90 0 1 14 -14" fill="#b2abd2" stroke="#b2abd2" stroke-width="0"/>
		<path d="M493 195 v11 a14 14 90 0 1 -14 14 H403 a14 14 90 0 1 -14 -14 V195 H104" fill="#d8daeb" stroke="#d8daeb" stroke-width="0"/>
		<rect x="389" y="170" width="104" height="50" fill="none" rx="14" stroke="#8073ac" stroke-width="2"/>
		<line x1="389" y1="195" x2="493" y2="195" stroke="#8073ac" stroke-width="1"/>
		<text x="397" y="187.75" fill="#000" font-family="Verdana" font-size="12">EST COMPOSE</text>
	</g>
</g>

<!-- Association CONCERNE -->
<g>
	<line x1="161" y1="347" x2="299" y2="347" stroke="#8073ac" stroke-width="2"/>
	<text x="230" y="364" fill="#b35806" font-family="Verdana" font-size="12">1,1</text>
	<line x1="441" y1="347" x2="299" y2="347" stroke="#8073ac" stroke-width="2"/>
	<text x="346" y="364" fill="#b35806" font-family="Verdana" font-size="12">1,N</text>
	<g>
		<path d="M327 322 a14 14 90 0 1 14 14 V347 h-84 V336 a14 14 90 0 1 14 -14" fill="#b2abd2" stroke="#b2abd2" stroke-width="0"/>
		<path d="M341 347 v11 a14 14 90 0 1 -14 14 H271 a14 14 90 0 1 -14 -14 V347 H84" fill="#d8daeb" stroke="#d8daeb" stroke-width="0"/>
		<rect x="257" y="322" width="84" height="50" fill="none" rx="14" stroke="#8073ac" stroke-width="2"/>
		<line x1="257" y1="347" x2="341" y2="347" stroke="#8073ac" stroke-width="1"/>
		<text x="265" y="339.75" fill="#000" font-family="Verdana" font-size="12">CONCERNE</text>
	</g>
</g>

<!-- Association CHOISIT -->
<g>
	<line x1="161" y1="347" x2="161" y2="490" stroke="#8073ac" stroke-width="2"/>
	<text x="166" y="440" fill="#b35806" font-family="Verdana" font-size="12">1,1</text>
	<line x1="52" y1="490" x2="161" y2="490" stroke="#8073ac" stroke-width="2"/>
	<text x="100" y="507" fill="#b35806" font-family="Verdana" font-size="12">0,N</text>
	<g>
		<path d="M181 465 a14 14 90 0 1 14 14 V490 h-68 V479 a14 14 90 0 1 14 -14" fill="#b2abd2" stroke="#b2abd2" stroke-width="0"/>
		<path d="M195 490 v11 a14 14 90 0 1 -14 14 H141 a14 14 90 0 1 -14 -14 V490 H68" fill="#d8daeb" stroke="#d8daeb" stroke-width="0"/>
		<rect x="127" y="465" width="68" height="50" fill="none" rx="14" stroke="#8073ac" stroke-width="2"/>
		<line x1="127" y1="490" x2="195" y2="490" stroke="#8073ac" stroke-width="1"/>
		<text x="134" y="482.75" fill="#000" font-family="Verdana" font-size="12">CHOISIT</text>
	</g>
</g>

<!-- Entity USER -->
<g>
	<g>
		<rect x="402" y="9" width="78" height="25" fill="#fdb863" stroke="#fdb863" stroke-width="0" opacity="1"/>
		<rect x="402" y="34" width="78" height="111" fill="#fee0b6" stroke="#fee0b6" stroke-width="0" opacity="1"/>
		<rect x="402" y="9" width="78" height="136" fill="none" stroke="#e08214" stroke-width="2" opacity="1"/>
		<line x1="402" y1="34" x2="480" y2="34" stroke="#e08214" stroke-width="1"/>
	</g>
	<text x="424" y="26.75" fill="#000" font-family="Verdana" font-size="12">USER</text>
	<text x="407" y="51.8" fill="#000" font-family="Verdana" font-size="12">code_user</text>
	<line x1="407" y1="54" x2="470" y2="54" stroke="#000" stroke-width="1"/>
	<text x="407" y="68.8" fill="#000" font-family="Verdana" font-size="12">first_name</text>
	<text x="407" y="85.8" fill="#000" font-family="Verdana" font-size="12">last_name</text>
	<text x="407" y="102.8" fill="#000" font-family="Verdana" font-size="12">email</text>
	<text x="407" y="119.8" fill="#000" font-family="Verdana" font-size="12">password</text>
	<text x="407" y="136.8" fill="#000" font-family="Verdana" font-size="12">risk_profile</text>
</g>

<!-- Entity PORTFOLIO -->
<g>
	<g>
		<rect x="250" y="144" width="98" height="25" fill="#fdb863" stroke="#fdb863" stroke-width="0" opacity="1"/>
		<rect x="250" y="169" width="98" height="77" fill="#fee0b6" stroke="#fee0b6" stroke-width="0" opacity="1"/>
		<rect x="250" y="144" width="98" height="102" fill="none" stroke="#e08214" stroke-width="2" opacity="1"/>
		<line x1="250" y1="169" x2="348" y2="169" stroke="#e08214" stroke-width="1"/>
	</g>
	<text x="264" y="161.75" fill="#000" font-family="Verdana" font-size="12">PORTFOLIO</text>
	<text x="255" y="186.8" fill="#000" font-family="Verdana" font-size="12">code_portfolio</text>
	<line x1="255" y1="189" x2="342" y2="189" stroke="#000" stroke-width="1"/>
	<text x="255" y="203.8" fill="#000" font-family="Verdana" font-size="12">name</text>
	<text x="255" y="220.8" fill="#000" font-family="Verdana" font-size="12">strategy</text>
	<text x="255" y="237.8" fill="#000" font-family="Verdana" font-size="12">total_invested</text>
</g>

<!-- Entity TRANSACTION -->
<g>
	<g>
		<rect x="97" y="271" width="128" height="25" fill="#fdb863" stroke="#fdb863" stroke-width="0" opacity="1"/>
		<rect x="97" y="296" width="128" height="127" fill="#fee0b6" stroke="#fee0b6" stroke-width="0" opacity="1"/>
		<rect x="97" y="271" width="128" height="152" fill="none" stroke="#e08214" stroke-width="2" opacity="1"/>
		<line x1="97" y1="296" x2="225" y2="296" stroke="#e08214" stroke-width="1"/>
	</g>
	<text x="116" y="288.75" fill="#000" font-family="Verdana" font-size="12">TRANSACTION</text>
	<text x="102" y="313.8" fill="#000" font-family="Verdana" font-size="12">code_transaction</text>
	<line x1="102" y1="316" x2="206" y2="316" stroke="#000" stroke-width="1"/>
	<text x="102" y="330.8" fill="#000" font-family="Verdana" font-size="12">purchase_datetime</text>
	<text x="102" y="347.8" fill="#000" font-family="Verdana" font-size="12">sell_datetime</text>
	<text x="102" y="364.8" fill="#000" font-family="Verdana" font-size="12">asset_price</text>
	<text x="102" y="381.8" fill="#000" font-family="Verdana" font-size="12">quantity</text>
	<text x="102" y="398.8" fill="#000" font-family="Verdana" font-size="12">total_transacted</text>
	<text x="102" y="415.8" fill="#000" font-family="Verdana" font-size="12">note</text>
</g>

<!-- Entity PORTFOLIO_ASSET -->
<g>
	<g>
		<rect x="373" y="288" width="136" height="25" fill="#fdb863" stroke="#fdb863" stroke-width="0" opacity="1"/>
		<rect x="373" y="313" width="136" height="93" fill="#fee0b6" stroke="#fee0b6" stroke-width="0" opacity="1"/>
		<rect x="373" y="288" width="136" height="118" fill="none" stroke="#e08214" stroke-width="2" opacity="1"/>
		<line x1="373" y1="313" x2="509" y2="313" stroke="#e08214" stroke-width="1"/>
	</g>
	<text x="382" y="305.75" fill="#000" font-family="Verdana" font-size="12">PORTFOLIO_ASSET</text>
	<text x="378" y="330.8" fill="#000" font-family="Verdana" font-size="12">code_portfolio_asset</text>
	<line x1="378" y1="333" x2="504" y2="333" stroke="#000" stroke-width="1"/>
	<text x="378" y="347.8" fill="#000" font-family="Verdana" font-size="12">symbol</text>
	<text x="378" y="364.8" fill="#000" font-family="Verdana" font-size="12">name</text>
	<text x="378" y="381.8" fill="#000" font-family="Verdana" font-size="12">remaining_quantity</text>
	<text x="378" y="398.8" fill="#000" font-family="Verdana" font-size="12">historic_price</text>
</g>

<!-- Entity ASSET_LIST -->
<g>
	<g>
		<rect x="9" y="448" width="86" height="25" fill="#fdb863" stroke="#fdb863" stroke-width="0" opacity="1"/>
		<rect x="9" y="473" width="86" height="59" fill="#fee0b6" stroke="#fee0b6" stroke-width="0" opacity="1"/>
		<rect x="9" y="448" width="86" height="84" fill="none" stroke="#e08214" stroke-width="2" opacity="1"/>
		<line x1="9" y1="473" x2="95" y2="473" stroke="#e08214" stroke-width="1"/>
	</g>
	<text x="14" y="465.75" fill="#000" font-family="Verdana" font-size="12">ASSET_LIST</text>
	<text x="14" y="490.8" fill="#000" font-family="Verdana" font-size="12">code_asset</text>
	<line x1="14" y1="493" x2="82" y2="493" stroke="#000" stroke-width="1"/>
	<text x="14" y="507.8" fill="#000" font-family="Verdana" font-size="12">symbol</text>
	<text x="14" y="524.8" fill="#000" font-family="Verdana" font-size="12">name</text>
</g>
</svg>