<?xml version="1.0" encoding="utf-8"?>
<svg width="531" height="694" viewBox="0 0 531 694" xmlns="http://www.w3.org/2000/svg">
<rect id="frame" x="0" y="0" width="531" height="694" fill="#f7f7f7" stroke="none" stroke-width="0"/>

<!-- Association DETENIR -->
<g>
	<line x1="470" y1="94" x2="470" y2="229" stroke="#8073ac" stroke-width="2"/>
	<text x="475" y="196" fill="#b35806" font-family="Verdana" font-size="12">0,N</text>
	<line x1="470" y1="364" x2="470" y2="229" stroke="#8073ac" stroke-width="2"/>
	<text x="475" y="280" fill="#b35806" font-family="Verdana" font-size="12">1,1</text>
	<g>
		<path d="M491 204 a14 14 90 0 1 14 14 V229 h-70 V218 a14 14 90 0 1 14 -14" fill="#b2abd2" stroke="#b2abd2" stroke-width="0"/>
		<path d="M505 229 v11 a14 14 90 0 1 -14 14 H449 a14 14 90 0 1 -14 -14 V229 H70" fill="#d8daeb" stroke="#d8daeb" stroke-width="0"/>
		<rect x="435" y="204" width="70" height="50" fill="none" rx="14" stroke="#8073ac" stroke-width="2"/>
		<line x1="435" y1="229" x2="505" y2="229" stroke="#8073ac" stroke-width="1"/>
		<text x="443" y="221.75" fill="#000" font-family="Verdana" font-size="12">DETENIR</text>
	</g>
</g>

<!-- Association CHOISIT -->
<g>
	<line x1="182" y1="364" x2="52" y2="364" stroke="#8073ac" stroke-width="2"/>
	<text x="92" y="381" fill="#b35806" font-family="Verdana" font-size="12">1,1</text>
	<line x1="52" y1="592" x2="52" y2="364" stroke="#8073ac" stroke-width="2"/>
	<text x="57" y="525" fill="#b35806" font-family="Verdana" font-size="12">0,N</text>
	<g>
		<path d="M72 339 a14 14 90 0 1 14 14 V364 h-68 V353 a14 14 90 0 1 14 -14" fill="#b2abd2" stroke="#b2abd2" stroke-width="0"/>
		<path d="M86 364 v11 a14 14 90 0 1 -14 14 H32 a14 14 90 0 1 -14 -14 V364 H68" fill="#d8daeb" stroke="#d8daeb" stroke-width="0"/>
		<rect x="18" y="339" width="68" height="50" fill="none" rx="14" stroke="#8073ac" stroke-width="2"/>
		<line x1="18" y1="364" x2="86" y2="364" stroke="#8073ac" stroke-width="1"/>
		<text x="25" y="356.75" fill="#000" font-family="Verdana" font-size="12">CHOISIT</text>
	</g>
</g>

<!-- Association RÉALISER -->
<g>
	<line x1="470" y1="364" x2="321" y2="364" stroke="#8073ac" stroke-width="2"/>
	<text x="394" y="381" fill="#b35806" font-family="Verdana" font-size="12">0,N</text>
	<line x1="182" y1="364" x2="321" y2="364" stroke="#8073ac" stroke-width="2"/>
	<text x="251" y="381" fill="#b35806" font-family="Verdana" font-size="12">1,1</text>
	<g>
		<path d="M345 339 a14 14 90 0 1 14 14 V364 h-76 V353 a14 14 90 0 1 14 -14" fill="#b2abd2" stroke="#b2abd2" stroke-width="0"/>
		<path d="M359 364 v11 a14 14 90 0 1 -14 14 H297 a14 14 90 0 1 -14 -14 V364 H76" fill="#d8daeb" stroke="#d8daeb" stroke-width="0"/>
		<rect x="283" y="339" width="76" height="50" fill="none" rx="14" stroke="#8073ac" stroke-width="2"/>
		<line x1="283" y1="364" x2="359" y2="364" stroke="#8073ac" stroke-width="1"/>
		<text x="291" y="356.75" fill="#000" font-family="Verdana" font-size="12">RÉALISER</text>
	</g>
</g>

<!-- Association CONCERNE -->
<g>
	<line x1="182" y1="364" x2="182" y2="592" stroke="#8073ac" stroke-width="2"/>
	<text x="187" y="491" fill="#b35806" font-family="Verdana" font-size="12">1,1</text>
	<line x1="321" y1="592" x2="182" y2="592" stroke="#8073ac" stroke-width="2"/>
	<text x="229" y="609" fill="#b35806" font-family="Verdana" font-size="12">1,N</text>
	<g>
		<path d="M210 567 a14 14 90 0 1 14 14 V592 h-84 V581 a14 14 90 0 1 14 -14" fill="#b2abd2" stroke="#b2abd2" stroke-width="0"/>
		<path d="M224 592 v11 a14 14 90 0 1 -14 14 H154 a14 14 90 0 1 -14 -14 V592 H84" fill="#d8daeb" stroke="#d8daeb" stroke-width="0"/>
		<rect x="140" y="567" width="84" height="50" fill="none" rx="14" stroke="#8073ac" stroke-width="2"/>
		<line x1="140" y1="592" x2="224" y2="592" stroke="#8073ac" stroke-width="1"/>
		<text x="148" y="584.75" fill="#000" font-family="Verdana" font-size="12">CONCERNE</text>
	</g>
</g>

<!-- Association EST COMPOSE -->
<g>
	<line x1="470" y1="364" x2="470" y2="592" stroke="#8073ac" stroke-width="2"/>
	<text x="475" y="457" fill="#b35806" font-family="Verdana" font-size="12">0,N</text>
	<line x1="321" y1="592" x2="470" y2="592" stroke="#8073ac" stroke-width="2"/>
	<text x="391" y="609" fill="#b35806" font-family="Verdana" font-size="12">1,1</text>
	<g>
		<path d="M508 567 a14 14 90 0 1 14 14 V592 h-104 V581 a14 14 90 0 1 14 -14" fill="#b2abd2" stroke="#b2abd2" stroke-width="0"/>
		<path d="M522 592 v11 a14 14 90 0 1 -14 14 H432 a14 14 90 0 1 -14 -14 V592 H104" fill="#d8daeb" stroke="#d8daeb" stroke-width="0"/>
		<rect x="418" y="567" width="104" height="50" fill="none" rx="14" stroke="#8073ac" stroke-width="2"/>
		<line x1="418" y1="592" x2="522" y2="592" stroke="#8073ac" stroke-width="1"/>
		<text x="426" y="584.75" fill="#000" font-family="Verdana" font-size="12">EST COMPOSE</text>
	</g>
</g>

<!-- Entity USER -->
<g>
	<g>
		<rect x="430" y="9" width="80" height="25" fill="#fdb863" stroke="#fdb863" stroke-width="0" opacity="1"/>
		<rect x="430" y="34" width="80" height="145" fill="#fee0b6" stroke="#fee0b6" stroke-width="0" opacity="1"/>
		<rect x="430" y="9" width="80" height="170" fill="none" stroke="#e08214" stroke-width="2" opacity="1"/>
		<line x1="430" y1="34" x2="510" y2="34" stroke="#e08214" stroke-width="1"/>
	</g>
	<text x="453" y="26.75" fill="#000" font-family="Verdana" font-size="12">USER</text>
	<text x="435" y="51.8" fill="#000" font-family="Verdana" font-size="12">id</text>
	<line x1="435" y1="54" x2="447" y2="54" stroke="#000" stroke-width="1"/>
	<text x="435" y="68.8" fill="#000" font-family="Verdana" font-size="12">first_name</text>
	<text x="435" y="85.8" fill="#000" font-family="Verdana" font-size="12">last_name</text>
	<text x="435" y="102.8" fill="#000" font-family="Verdana" font-size="12">email</text>
	<text x="435" y="119.8" fill="#000" font-family="Verdana" font-size="12">password</text>
	<text x="435" y="136.8" fill="#000" font-family="Verdana" font-size="12">risk_profile</text>
	<text x="435" y="153.8" fill="#000" font-family="Verdana" font-size="12">created_at</text>
	<text x="435" y="170.8" fill="#000" font-family="Verdana" font-size="12">updated_at</text>
</g>

<!-- Entity TRANSACTION -->
<g>
	<g>
		<rect x="118" y="254" width="128" height="25" fill="#fdb863" stroke="#fdb863" stroke-width="0" opacity="1"/>
		<rect x="118" y="279" width="128" height="195" fill="#fee0b6" stroke="#fee0b6" stroke-width="0" opacity="1"/>
		<rect x="118" y="254" width="128" height="220" fill="none" stroke="#e08214" stroke-width="2" opacity="1"/>
		<line x1="118" y1="279" x2="246" y2="279" stroke="#e08214" stroke-width="1"/>
	</g>
	<text x="137" y="271.75" fill="#000" font-family="Verdana" font-size="12">TRANSACTION</text>
	<text x="123" y="296.8" fill="#000" font-family="Verdana" font-size="12">id</text>
	<line x1="123" y1="299" x2="135" y2="299" stroke="#000" stroke-width="1"/>
	<text x="123" y="313.8" fill="#000" font-family="Verdana" font-size="12">portfolio_id</text>
	<text x="123" y="330.8" fill="#000" font-family="Verdana" font-size="12">asset_id</text>
	<text x="123" y="347.8" fill="#000" font-family="Verdana" font-size="12">purchase_datetime</text>
	<text x="123" y="364.8" fill="#000" font-family="Verdana" font-size="12">sell_datetime</text>
	<text x="123" y="381.8" fill="#000" font-family="Verdana" font-size="12">asset_price</text>
	<text x="123" y="398.8" fill="#000" font-family="Verdana" font-size="12">quantity</text>
	<text x="123" y="415.8" fill="#000" font-family="Verdana" font-size="12">total_transacted</text>
	<text x="123" y="432.8" fill="#000" font-family="Verdana" font-size="12">note</text>
	<text x="123" y="449.8" fill="#000" font-family="Verdana" font-size="12">created_at</text>
	<text x="123" y="466.8" fill="#000" font-family="Verdana" font-size="12">updated_at</text>
</g>

<!-- Entity PORTFOLIO -->
<g>
	<g>
		<rect x="421" y="288" width="98" height="25" fill="#fdb863" stroke="#fdb863" stroke-width="0" opacity="1"/>
		<rect x="421" y="313" width="98" height="127" fill="#fee0b6" stroke="#fee0b6" stroke-width="0" opacity="1"/>
		<rect x="421" y="288" width="98" height="152" fill="none" stroke="#e08214" stroke-width="2" opacity="1"/>
		<line x1="421" y1="313" x2="519" y2="313" stroke="#e08214" stroke-width="1"/>
	</g>
	<text x="435" y="305.75" fill="#000" font-family="Verdana" font-size="12">PORTFOLIO</text>
	<text x="426" y="330.8" fill="#000" font-family="Verdana" font-size="12">id</text>
	<line x1="426" y1="333" x2="438" y2="333" stroke="#000" stroke-width="1"/>
	<text x="426" y="347.8" fill="#000" font-family="Verdana" font-size="12">user_id</text>
	<text x="426" y="364.8" fill="#000" font-family="Verdana" font-size="12">name</text>
	<text x="426" y="381.8" fill="#000" font-family="Verdana" font-size="12">strategy</text>
	<text x="426" y="398.8" fill="#000" font-family="Verdana" font-size="12">total_invested</text>
	<text x="426" y="415.8" fill="#000" font-family="Verdana" font-size="12">created_at</text>
	<text x="426" y="432.8" fill="#000" font-family="Verdana" font-size="12">updated_at</text>
</g>

<!-- Entity ASSET_LIST -->
<g>
	<g>
		<rect x="9" y="533" width="86" height="25" fill="#fdb863" stroke="#fdb863" stroke-width="0" opacity="1"/>
		<rect x="9" y="558" width="86" height="93" fill="#fee0b6" stroke="#fee0b6" stroke-width="0" opacity="1"/>
		<rect x="9" y="533" width="86" height="118" fill="none" stroke="#e08214" stroke-width="2" opacity="1"/>
		<line x1="9" y1="558" x2="95" y2="558" stroke="#e08214" stroke-width="1"/>
	</g>
	<text x="14" y="550.75" fill="#000" font-family="Verdana" font-size="12">ASSET_LIST</text>
	<text x="14" y="575.8" fill="#000" font-family="Verdana" font-size="12">id</text>
	<line x1="14" y1="578" x2="26" y2="578" stroke="#000" stroke-width="1"/>
	<text x="14" y="592.8" fill="#000" font-family="Verdana" font-size="12">symbol</text>
	<text x="14" y="609.8" fill="#000" font-family="Verdana" font-size="12">name</text>
	<text x="14" y="626.8" fill="#000" font-family="Verdana" font-size="12">created_at</text>
	<text x="14" y="643.8" fill="#000" font-family="Verdana" font-size="12">updated_at</text>
</g>

<!-- Entity PORTFOLIO_ASSET -->
<g>
	<g>
		<rect x="256" y="499" width="130" height="25" fill="#fdb863" stroke="#fdb863" stroke-width="0" opacity="1"/>
		<rect x="256" y="524" width="130" height="161" fill="#fee0b6" stroke="#fee0b6" stroke-width="0" opacity="1"/>
		<rect x="256" y="499" width="130" height="186" fill="none" stroke="#e08214" stroke-width="2" opacity="1"/>
		<line x1="256" y1="524" x2="386" y2="524" stroke="#e08214" stroke-width="1"/>
	</g>
	<text x="262" y="516.75" fill="#000" font-family="Verdana" font-size="12">PORTFOLIO_ASSET</text>
	<text x="261" y="541.8" fill="#000" font-family="Verdana" font-size="12">id</text>
	<line x1="261" y1="544" x2="273" y2="544" stroke="#000" stroke-width="1"/>
	<text x="261" y="558.8" fill="#000" font-family="Verdana" font-size="12">asset_id</text>
	<text x="261" y="575.8" fill="#000" font-family="Verdana" font-size="12">portfolio_id</text>
	<text x="261" y="592.8" fill="#000" font-family="Verdana" font-size="12">symbol</text>
	<text x="261" y="609.8" fill="#000" font-family="Verdana" font-size="12">name</text>
	<text x="261" y="626.8" fill="#000" font-family="Verdana" font-size="12">remaining_quantity</text>
	<text x="261" y="643.8" fill="#000" font-family="Verdana" font-size="12">historic_price</text>
	<text x="261" y="660.8" fill="#000" font-family="Verdana" font-size="12">created_at</text>
	<text x="261" y="677.8" fill="#000" font-family="Verdana" font-size="12">updated_at</text>
</g>
</svg>